<?xml version="1.0" encoding="utf-8"?>
<svg version="1.1" id="Layer_1" xmlns="http://www.w3.org/2000/svg" xmlns:xlink="http://www.w3.org/1999/xlink" x="0px" y="0px" viewBox="0 0 500 500" style="enable-background:new 0 0 500 500;" xml:space="preserve">
  <style type="text/css">
	.st0{fill:#FFF;}
</style>
  <g>
    <g>
      <path class="st0" d="M223.5,242.6c-0.8-3.1-2.1-3.4-3.3-3.4h-0.4v12.5H212v-31.9h11.6c5.9,0,9.2,2.7,9.2,8.6
			c0,4.7-3.1,6.6-5.6,7.3v0.2c1.7,0.6,2.8,1.5,3.9,5.9l2.6,10h-8.1L223.5,242.6z M221.7,233c1.7,0,3.2-1.4,3.2-3.4
			c0-2.2-1.1-3.8-3.4-3.8h-2.1v7.1L221.7,233L221.7,233z" />
      <path class="st0" d="M237,219.7h17.9v6.3h-10.2v6.1h9.7v6.3h-9.7v6.8h10.7v6.3H237V219.7z" />
      <path class="st0" d="M259,243.9c1,0.6,3.8,1.9,6.6,1.9c3,0,4-1.4,4-3.4c0-2.1-1.3-2.7-3.5-3.7l-1.7-0.7c-4.8-2.1-6.3-4.9-6.3-9.4
			c0-6.1,4.4-9.4,10.6-9.4c2.2,0,5,0.2,7.4,1.3l-0.3,6.3c-1.4-0.8-3.8-1.6-6-1.6c-2.4,0-3.8,1.1-3.8,3c0,1.6,0.8,2.4,3.4,3.7
			l3.5,1.8c2.6,1.3,4.9,3.3,4.9,8c0,7-4.6,10.5-11.4,10.5c-3.5,0-6.3-0.8-7.7-1.2L259,243.9z" />
      <path class="st0" d="M281.8,219.7h17.9v6.3h-10.2v6.1h9.7v6.3h-9.7v6.8h10.7v6.3h-18.4L281.8,219.7L281.8,219.7z" />
      <path class="st0" d="M319.3,244.8h-8.6l-1.9,6.7h-7.5l9.7-31.9h8.7l9.3,31.9h-8.1L319.3,244.8z M315.2,226.2L315.2,226.2
			l-3.2,12.5h5.7L315.2,226.2z" />
      <path class="st0" d="M342.8,242.6c-0.8-3.1-2.1-3.4-3.3-3.4H339v12.5h-7.8v-31.9h11.6c5.9,0,9.2,2.7,9.2,8.6
			c0,4.7-3.1,6.6-5.6,7.3v0.2c1.7,0.6,2.8,1.5,3.9,5.9l2.6,10h-8L342.8,242.6z M341,233c1.7,0,3.2-1.4,3.2-3.4
			c0-2.2-1.1-3.8-3.4-3.8h-2.1v7.1L341,233L341,233z" />
      <path class="st0" d="M377.2,250.9c-2.5,0.8-5,1.2-7.2,1.2c-8.5,0-14.6-5.5-14.6-16.7c0-9.4,4.9-16.2,14.5-16.2
			c3.8,0,6.4,1.1,7.1,1.5l-0.4,7.1c-0.9-0.6-3.2-1.8-5.7-1.8c-5,0-7.4,3.5-7.4,9.7c0,5.5,2.8,9.7,7.7,9.7c2.8,0,4.8-1.2,5.6-1.8
			L377.2,250.9z" />
      <path class="st0" d="M394.7,238.6h-6.1v13h-7.8v-31.9h7.8v12.3h6.1v-12.3h7.8v31.9h-7.8V238.6z" />
    </g>
    <path class="st0" d="M211.8,269.1l140.9,31.3c-18.6,37.9-57.6,64-102.7,64c-63.1,0-114.3-51.2-114.3-114.3S186.9,135.7,250,135.7
		c22.1,0,42.7,6.3,60.2,17.1l20.1-32.4c-23.4-14.5-50.8-22.8-80.2-22.8c-84.2,0-152.5,68.3-152.5,152.5S165.8,402.5,250,402.5
		c77.8,0,141.8-58.2,151.3-133.4H211.8z" />
  </g>
</svg>
